<svg width="335" height="62" viewBox="0 0 335 62" fill="none" xmlns="http://www.w3.org/2000/svg">
<path d="M0.90625 49V45.0625L6 44.1875V8.34375L0.90625 7.46875V3.5H18.7188C22.7396 3.5 26.2396 4.45833 29.2188 6.375C32.2188 8.29167 34.5521 10.9271 36.2188 14.2812C37.8854 17.6354 38.7188 21.4688 38.7188 25.7812V26.75C38.7188 30.9583 37.9167 34.75 36.3125 38.125C34.7083 41.4792 32.4271 44.1354 29.4688 46.0938C26.5312 48.0312 23.0521 49 19.0312 49H0.90625ZM12.1562 44.1875H18.7188C21.5938 44.1875 24.0625 43.4062 26.125 41.8438C28.1875 40.2604 29.7708 38.1562 30.875 35.5312C32 32.8854 32.5625 29.9583 32.5625 26.75V25.7188C32.5625 22.4062 32 19.4479 30.875 16.8438C29.7708 14.2188 28.1875 12.1458 26.125 10.625C24.0625 9.10417 21.5938 8.34375 18.7188 8.34375H12.1562V44.1875ZM54 49.6562C50.4792 49.6562 47.8021 48.8021 45.9688 47.0938C44.1354 45.3646 43.2188 42.9375 43.2188 39.8125C43.2188 36.6042 44.5312 34.0312 47.1562 32.0938C49.7812 30.1354 53.4271 29.1562 58.0938 29.1562H64.125V25.8438C64.125 23.8021 63.5 22.2188 62.25 21.0938C61.0208 19.9688 59.2812 19.4062 57.0312 19.4062C55.6146 19.4062 54.3854 19.5833 53.3438 19.9375C52.3021 20.2708 51.3542 20.7396 50.5 21.3438L49.8438 26.0625H45.0938V18.3125C48.1562 15.8125 52.1667 14.5625 57.125 14.5625C61.2292 14.5625 64.4479 15.5417 66.7812 17.5C69.1146 19.4583 70.2812 22.2604 70.2812 25.9062V42.1875C70.2812 42.625 70.2812 43.0521 70.2812 43.4688C70.3021 43.8854 70.3333 44.3021 70.375 44.7188L73.6562 45.0625V49H64.8125C64.4583 47.2917 64.2396 45.7396 64.1562 44.3438C62.9688 45.8646 61.4792 47.1354 59.6875 48.1562C57.9167 49.1562 56.0208 49.6562 54 49.6562ZM54.9062 44.5C56.9479 44.5 58.8125 44.0104 60.5 43.0312C62.1875 42.0521 63.3958 40.875 64.125 39.5V33.375H57.875C55.0417 33.375 52.9167 34.0521 51.5 35.4062C50.0833 36.7604 49.375 38.2708 49.375 39.9375C49.375 42.9792 51.2188 44.5 54.9062 44.5ZM78.375 49V45.0625L83.4688 44.1875V20.0312L78.375 19.1562V15.1875H88.9688L89.5 19.5L89.5625 20.0938C90.5208 18.3646 91.6979 17.0104 93.0938 16.0312C94.5104 15.0521 96.125 14.5625 97.9375 14.5625C98.5833 14.5625 99.2396 14.625 99.9062 14.75C100.594 14.8542 101.083 14.9583 101.375 15.0625L100.562 20.7812L96.2812 20.5312C94.6562 20.4271 93.2917 20.8021 92.1875 21.6562C91.0833 22.4896 90.2292 23.6146 89.625 25.0312V44.1875L94.7188 45.0625V49H78.375ZM104.188 49V45.0625L109.281 44.1875V5.09375L104.188 4.21875V0.25H115.438V31.6562L127.406 19.75L127.562 19.5625L123.938 19.1562V15.1875H138.5V19.1562L134.156 19.9688L124.656 29.5312L136.312 44.3125L141.188 45.0625V49H125.906V45.0625L129.344 44.6562L129.25 44.5312L120.688 33.5L115.438 38.7812V44.1875L120.531 45.0625V49H104.188Z" fill="#F4EDE8"/>
<path d="M161.375 49.6562C158.604 49.6562 155.938 49.25 153.375 48.4375C150.812 47.625 148.365 46.375 146.031 44.6875V34.9688H150.812L151.844 42.125C153.198 42.9583 154.667 43.6042 156.25 44.0625C157.833 44.5208 159.542 44.75 161.375 44.75C164.479 44.75 166.885 44.0625 168.594 42.6875C170.302 41.2917 171.156 39.4688 171.156 37.2188C171.156 35.1354 170.385 33.4062 168.844 32.0312C167.302 30.6562 164.552 29.5208 160.594 28.625C155.885 27.5417 152.292 25.8958 149.812 23.6875C147.333 21.4583 146.094 18.6562 146.094 15.2812C146.094 12.9062 146.719 10.7812 147.969 8.90625C149.24 7.03125 151 5.55208 153.25 4.46875C155.5 3.38542 158.125 2.84375 161.125 2.84375C164.312 2.84375 167.125 3.33333 169.562 4.3125C172.021 5.27083 174.042 6.4375 175.625 7.8125V16.9062H170.844L169.812 10.4062C168.875 9.65625 167.708 9.03125 166.312 8.53125C164.917 8.03125 163.188 7.78125 161.125 7.78125C158.479 7.78125 156.333 8.45833 154.688 9.8125C153.062 11.1667 152.25 12.9583 152.25 15.1875C152.25 17.1458 153.031 18.75 154.594 20C156.156 21.2292 158.865 22.3229 162.719 23.2812C167.51 24.4688 171.135 26.2292 173.594 28.5625C176.073 30.875 177.312 33.7396 177.312 37.1562C177.312 39.5938 176.656 41.7604 175.344 43.6562C174.031 45.5312 172.177 47 169.781 48.0625C167.406 49.125 164.604 49.6562 161.375 49.6562ZM181.5 62V58.0312L186.281 57.1562V20.0312L181.188 19.1562V15.1875H191.562L192.125 19.3125C194.438 16.1458 197.677 14.5625 201.844 14.5625C204.635 14.5625 207.021 15.3229 209 16.8438C210.979 18.3438 212.49 20.4583 213.531 23.1875C214.573 25.8958 215.094 29.0729 215.094 32.7188V33.375C215.094 36.625 214.562 39.4688 213.5 41.9062C212.458 44.3438 210.958 46.25 209 47.625C207.042 48.9792 204.688 49.6562 201.938 49.6562C197.833 49.6562 194.667 48.2708 192.438 45.5V57.1562L197.812 58.0312V62H181.5ZM200.031 44.8438C202.948 44.8438 205.156 43.7812 206.656 41.6562C208.156 39.5312 208.906 36.7708 208.906 33.375V32.7188C208.906 28.8646 208.156 25.7083 206.656 23.25C205.156 20.7917 202.927 19.5625 199.969 19.5625C198.219 19.5625 196.719 19.9583 195.469 20.75C194.219 21.5417 193.208 22.625 192.438 24V40.4688C193.208 41.8646 194.208 42.9479 195.438 43.7188C196.688 44.4688 198.219 44.8438 200.031 44.8438ZM219.656 49V45.0625L224.75 44.1875V20.0312L219.656 19.1562V15.1875H230.906V44.1875L236 45.0625V49H219.656ZM224.438 6.84375V0.25H230.906V6.84375H224.438ZM253.531 49.6562C250.781 49.6562 248.417 48.9792 246.438 47.625C244.479 46.25 242.979 44.3438 241.938 41.9062C240.896 39.4688 240.375 36.625 240.375 33.375V32.7188C240.375 29.0938 240.896 25.9167 241.938 23.1875C242.979 20.4583 244.49 18.3438 246.469 16.8438C248.448 15.3229 250.823 14.5625 253.594 14.5625C255.594 14.5625 257.354 14.9375 258.875 15.6875C260.417 16.4167 261.729 17.4792 262.812 18.875V5.09375L257.719 4.21875V0.25H268.969V44.1875L274.062 45.0625V49H263.625L263.125 44.9688C260.875 48.0938 257.677 49.6562 253.531 49.6562ZM255.094 44.6562C256.927 44.6562 258.469 44.2396 259.719 43.4062C260.969 42.5729 262 41.3958 262.812 39.875V24.1875C262.021 22.7708 260.99 21.6458 259.719 20.8125C258.448 19.9792 256.927 19.5625 255.156 19.5625C252.219 19.5625 250.042 20.7812 248.625 23.2188C247.229 25.6562 246.531 28.8229 246.531 32.7188V33.375C246.531 36.7708 247.229 39.5 248.625 41.5625C250.021 43.625 252.177 44.6562 255.094 44.6562ZM293.531 49.6562C290.406 49.6562 287.688 48.9479 285.375 47.5312C283.062 46.0938 281.271 44.1042 280 41.5625C278.75 39.0208 278.125 36.0833 278.125 32.75V31.375C278.125 28.1667 278.781 25.3021 280.094 22.7812C281.427 20.2396 283.188 18.2396 285.375 16.7812C287.583 15.3021 289.99 14.5625 292.594 14.5625C297.135 14.5625 300.573 15.9375 302.906 18.6875C305.26 21.4375 306.438 25.1042 306.438 29.6875V33.5312H284.5L284.406 33.6875C284.469 36.9375 285.292 39.6146 286.875 41.7188C288.458 43.8021 290.677 44.8438 293.531 44.8438C295.615 44.8438 297.438 44.5521 299 43.9688C300.583 43.3646 301.948 42.5417 303.094 41.5L305.5 45.5C304.292 46.6667 302.688 47.6562 300.688 48.4688C298.708 49.2604 296.323 49.6562 293.531 49.6562ZM284.688 28.7188H300.281V27.9062C300.281 25.4896 299.635 23.4688 298.344 21.8438C297.052 20.2188 295.135 19.4062 292.594 19.4062C290.531 19.4062 288.771 20.2812 287.312 22.0312C285.854 23.7604 284.958 25.9375 284.625 28.5625L284.688 28.7188ZM311.188 49V45.0625L316.281 44.1875V20.0312L311.188 19.1562V15.1875H321.781L322.312 19.5L322.375 20.0938C323.333 18.3646 324.51 17.0104 325.906 16.0312C327.323 15.0521 328.938 14.5625 330.75 14.5625C331.396 14.5625 332.052 14.625 332.719 14.75C333.406 14.8542 333.896 14.9583 334.188 15.0625L333.375 20.7812L329.094 20.5312C327.469 20.4271 326.104 20.8021 325 21.6562C323.896 22.4896 323.042 23.6146 322.438 25.0312V44.1875L327.531 45.0625V49H311.188Z" fill="#FF9000"/>
</svg>
